name rise49.8558peak67.6521fall70.3087.mot
datacolumns 19
datarows 21
range 1.30832800000000 1.34166000000000
endheader
time	ground_force1_vx	ground_force1_vy	ground_force1_vz	ground_force1_px	ground_force1_py	ground_force1_pz	ground_force2_vx	ground_force2_vy	ground_force2_vz	ground_force2_px	ground_force2_py	ground_force2_pz	ground_torque1_x	ground_torque1_y	ground_torque1_z	ground_torque2_x	ground_torque2_y	ground_torque2_z	
1.30832800000000	-54.87093800000000	823.14107100000001	73.66211500000000	0.11140000000000	0.00000000000000	0.11829900000000	-1.16505000000000	16.15472600000000	1.89607200000000	0.00000000000000	0.00000000000000	0.00000000000000	0.00000000000000	29.46990200000000	0.00000000000000	0.00000000000000	0.72478800000000	0.00000000000000	
1.30999800000000	-54.65963800000000	820.53026599999998	73.43031600000000	0.11098100000000	0.00000000000000	0.11807800000000	-1.46869100000000	21.58320300000000	2.41905000000000	0.00000000000000	0.00000000000000	0.00000000000000	0.00000000000000	29.22836700000000	0.00000000000000	0.00000000000000	0.93174100000000	0.00000000000000	
1.31165800000000	-54.44657000000000	817.77925900000002	73.17255700000000	0.11057600000000	0.00000000000000	0.11785500000000	-1.77297600000000	27.50594600000000	2.95716900000000	0.34916800000000	0.00000000000000	-0.09176200000000	0.00000000000000	28.98273100000000	0.00000000000000	0.00000000000000	2.01710800000000	0.00000000000000	
1.31332800000000	-54.23297600000000	814.88940500000001	72.88862800000000	0.11018300000000	0.00000000000000	0.11762900000000	-2.06478000000000	33.80364500000000	3.49192000000000	0.35574300000000	0.00000000000000	-0.09220100000000	0.00000000000000	28.73334900000000	0.00000000000000	0.00000000000000	2.41643600000000	0.00000000000000	
1.31499600000000	-54.02008700000000	811.86214800000005	72.57836200000000	0.10980200000000	0.00000000000000	0.11740100000000	-2.33100200000000	40.34982100000000	4.00489900000000	0.36163700000000	0.00000000000000	-0.09260900000000	0.00000000000000	28.48057400000000	0.00000000000000	0.00000000000000	2.80945200000000	0.00000000000000	
1.31666800000000	-53.80912500000000	808.69901700000003	72.24163799999999	0.10943300000000	0.00000000000000	0.11717000000000	-2.55941000000000	47.02128500000000	4.47913300000000	0.36694800000000	0.00000000000000	-0.09299100000000	0.00000000000000	28.22476300000000	0.00000000000000	0.00000000000000	3.18387700000000	0.00000000000000	
1.31832700000000	-53.60129200000000	805.40161200000000	71.87837700000000	0.10907500000000	0.00000000000000	0.11693700000000	-2.73935200000000	53.70743000000000	4.90018700000000	0.37175800000000	0.00000000000000	-0.09335200000000	0.00000000000000	27.96627000000000	0.00000000000000	0.00000000000000	3.52900400000000	0.00000000000000	
1.31999200000000	-53.39776800000000	801.97159699999997	71.48855100000000	0.10872900000000	0.00000000000000	0.11670200000000	-2.86226000000000	60.31738600000000	5.25693000000000	0.37613100000000	0.00000000000000	-0.09369400000000	0.00000000000000	27.70545200000000	0.00000000000000	0.00000000000000	3.83633100000000	0.00000000000000	
1.32166300000000	-53.19971000000000	798.41069200000004	71.07217300000001	0.10839200000000	0.00000000000000	0.11646300000000	-2.92191200000000	66.78453399999999	5.54193200000000	0.38012200000000	0.00000000000000	-0.09402100000000	0.00000000000000	27.44265900000000	0.00000000000000	0.00000000000000	4.09991500000000	0.00000000000000	
1.32333200000000	-53.00824200000000	794.72066400000006	70.62930400000000	0.10806700000000	0.00000000000000	0.11622300000000	-2.91447700000000	73.06832600000000	5.75150200000000	0.38377700000000	0.00000000000000	-0.09433400000000	0.00000000000000	27.17824000000000	0.00000000000000	0.00000000000000	4.31647200000000	0.00000000000000	
1.32499900000000	-52.82445300000000	790.90331400000002	70.16005300000000	0.10775000000000	0.00000000000000	0.11597900000000	-2.83834700000000	79.15365300000001	5.88540200000000	0.38713400000000	0.00000000000000	-0.09463500000000	0.00000000000000	26.91254100000000	0.00000000000000	0.00000000000000	4.48523600000000	0.00000000000000	
1.32666200000000	-52.64939200000000	786.96047499999997	69.66457200000001	0.10744300000000	0.00000000000000	0.11573300000000	-2.69383700000000	85.04823600000000	5.94633700000000	0.39022700000000	0.00000000000000	-0.09492600000000	0.00000000000000	26.64590000000000	0.00000000000000	0.00000000000000	4.60763200000000	0.00000000000000	
1.32832700000000	-52.48406500000000	782.89400000000001	69.14305800000000	0.10714500000000	0.00000000000000	0.11548500000000	-2.48277300000000	90.77857100000000	5.93928800000000	0.39308200000000	0.00000000000000	-0.09520800000000	0.00000000000000	26.37864800000000	0.00000000000000	0.00000000000000	4.68683200000000	0.00000000000000	
1.32999800000000	-52.32942900000000	778.70575299999996	68.59575700000001	0.10685500000000	0.00000000000000	0.11523300000000	-2.20804000000000	96.38504700000000	5.87077200000000	0.39572500000000	0.00000000000000	-0.09548200000000	0.00000000000000	26.11111200000000	0.00000000000000	0.00000000000000	4.72723100000000	0.00000000000000	
1.33166600000000	-52.18638700000000	774.39760200000001	68.02295599999999	0.10657300000000	0.00000000000000	0.11497900000000	-1.87312300000000	101.91675900000000	5.74810600000000	0.39817600000000	0.00000000000000	-0.09574900000000	0.00000000000000	25.84360600000000	0.00000000000000	0.00000000000000	4.73392400000000	0.00000000000000	
1.33332700000000	-52.05578700000000	769.97141599999998	67.42498800000000	0.10629800000000	0.00000000000000	0.11472200000000	-1.48169000000000	107.42650399999999	5.57873900000000	0.40045300000000	0.00000000000000	-0.09601000000000	0.00000000000000	25.57643600000000	0.00000000000000	0.00000000000000	4.71220600000000	0.00000000000000	
1.33499800000000	-51.93841200000000	765.42904899999996	66.80222900000000	0.10602900000000	0.00000000000000	0.11446200000000	-1.03724000000000	112.96632800000000	5.36967700000000	0.40257100000000	0.00000000000000	-0.09626500000000	0.00000000000000	25.30989800000000	0.00000000000000	0.00000000000000	4.66715200000000	0.00000000000000	
1.33666600000000	-51.83498300000000	760.77234199999998	66.15509800000000	0.10576800000000	0.00000000000000	0.11420000000000	-0.54282400000000	118.58387300000000	5.12705000000000	0.40454600000000	0.00000000000000	-0.09651500000000	0.00000000000000	25.04427500000000	0.00000000000000	0.00000000000000	4.60327400000000	0.00000000000000	
1.33833200000000	-51.74614700000000	756.00310999999999	65.48405500000000	0.10551200000000	0.00000000000000	0.11393500000000	-0.00086100000000	124.31966799999999	4.85582100000000	0.40638800000000	0.00000000000000	-0.09676000000000	0.00000000000000	24.77983600000000	0.00000000000000	0.00000000000000	4.52429600000000	0.00000000000000	
1.33999200000000	-51.67248200000000	751.12314100000003	64.78960200000000	0.10526100000000	0.00000000000000	0.11366600000000	0.58695500000000	130.20540700000001	4.55963200000000	0.40810900000000	0.00000000000000	-0.09700100000000	0.00000000000000	24.51683800000000	0.00000000000000	0.00000000000000	4.43301600000000	0.00000000000000	
1.34166000000000	-51.61448500000000	746.13418400000000	64.07228100000000	0.10501500000000	0.00000000000000	0.11339600000000	1.21968000000000	136.26316499999999	4.24077800000000	0.40971700000000	0.00000000000000	-0.09723900000000	0.00000000000000	24.25552200000000	0.00000000000000	0.00000000000000	4.33126900000000	0.00000000000000	
